<svg xmlns="http://www.w3.org/2000/svg" viewBox="0 0 32.43 32.43"><defs><style>.cls-1{fill:#6511f5;}.cls-1,.cls-2,.cls-3{stroke:#231f20;stroke-miterlimit:10;}.cls-2{fill:#80c68b;}.cls-3{fill:#12ce60;}</style></defs><g id="Layer_2" data-name="Layer 2"><g id="Layer_2-2" data-name="Layer 2"><ellipse class="cls-1" cx="16.18" cy="16.94" rx="3.55" ry="3.61"/><ellipse class="cls-1" cx="20.3" cy="13.93" rx="3.55" ry="3.61"/><ellipse class="cls-1" cx="15.46" cy="10.03" rx="3.55" ry="3.61"/><ellipse class="cls-1" cx="20.79" cy="21.8" rx="3.55" ry="3.61"/><ellipse class="cls-1" cx="15.46" cy="23.57" rx="3.55" ry="3.61"/><ellipse class="cls-1" cx="10.26" cy="19.17" rx="3.55" ry="3.61"/><ellipse class="cls-1" cx="11.63" cy="12.72" rx="3.55" ry="3.61"/><ellipse class="cls-1" cx="8.36" cy="9.72" rx="3.55" ry="3.61"/><ellipse class="cls-1" cx="5.24" cy="15.14" rx="3.55" ry="3.61"/><ellipse class="cls-1" cx="4.53" cy="21.44" rx="3.55" ry="3.61"/><ellipse class="cls-1" cx="9.84" cy="26.39" rx="3.55" ry="3.61"/><ellipse class="cls-1" cx="4.05" cy="28.32" rx="3.55" ry="3.61"/><path class="cls-2" d="M21,7.61a7.7,7.7,0,0,0,5.6-1.81A8,8,0,0,0,28.9.5a8.64,8.64,0,0,1-2.4,5.15A8.45,8.45,0,0,1,21,7.61Z"/><path class="cls-3" d="M30.72,16.2c.25-.41,2-3.4.76-6.45-.86-2.1-3.09-4.08-4.39-3.55s-1.57,3.72-.7,6A7.46,7.46,0,0,0,30.72,16.2Z"/></g></g></svg>